<svg xmlns="http://www.w3.org/2000/svg" viewBox="15 10 160 160"><defs><clipPath id="r"><path d="M25,90 A70,70 0 1 1 165,90 A70,70 0 1 1 25,90 Z M61,90 A34,34 0 1 1 129,90 A34,34 0 1 1 61,90 Z" fill-rule="evenodd" clip-rule="evenodd"/></clipPath></defs><g clip-path="url(#r)" fill="#93a9f9"><rect x="25" y="20" width="60" height="140"/><rect x="83" y="32" width="90" height="7"/><rect x="83" y="46" width="90" height="7"/><rect x="83" y="60" width="90" height="7"/><rect x="83" y="74" width="90" height="7"/><rect x="83" y="88" width="90" height="7"/><rect x="83" y="102" width="90" height="7"/><rect x="83" y="116" width="90" height="7"/><rect x="83" y="130" width="90" height="7"/><rect x="83" y="144" width="90" height="7"/></g></svg>